<svg xmlns="http://www.w3.org/2000/svg" width="36" height="36" viewBox="0 0 36 36" fill="none"><g clipPath="url(#clip0_3_173)"><path d="M0 16.351V28.7997C0 32.7758 3.22286 36 7.20058 36H9.70102V21.9503L0 16.351Z" fill="#FFFFFF"/><path d="M0 9.75079V12.0108L14.2493 20.2372V36H16.2175V19.102L0 9.75079Z" fill="#FFFFFF"/><path d="M1.21336 3.19914C0.846251 3.74609 0.554336 4.34612 0.347931 4.98595L20.7658 16.7594L20.7746 16.7638V21.878L20.7658 21.8736V36H28.7993C32.1711 36 35.0003 33.6824 35.7832 30.554L22.7414 23.0147V17.9005L35.9999 25.5637V23.283L1.21336 3.19914Z" fill="#FFFFFF"/><path d="M36 7.20029C36 3.22421 32.7757 0 28.7994 0H7.19916C6.60206 0 6.02413 0.0737131 5.46979 0.210819L36 17.8371V7.20029Z" fill="#FFFFFF"/></g><defs><clipPath id="clip0_3_173"><rect width="36" height="36" fill="white"/></clipPath></defs></svg>